M48
;GenerationSoftware,Autodesk,EAGLE,9.6.2*%
;CreationDate,2022-12-18T09:34:14Z*%
FMAT,2
ICI,OFF
METRIC,TZ,000.000
T5C0.300
T4C0.350
T3C1.016
T2C1.200
T1C2.050
%
G90
M71
T1
X45000Y18250
X45000Y1750
T2
X42100Y6600
X42100Y13400
T3
X26620Y13810
X24080Y13810
X21540Y13810
X19000Y13810
X16460Y13810
X13920Y13810
X11380Y13810
X8840Y13810
X6300Y13810
X3760Y13810
X29160Y13810
X31700Y13810
X34240Y13810
X36780Y13810
X1220Y13810
X36780Y6190
X34240Y6190
X31700Y6190
X29160Y6190
X26620Y6190
X24080Y6190
X21540Y6190
X19000Y6190
X16460Y6190
X13920Y6190
X11380Y6190
X8840Y6190
X6300Y6190
X3760Y6190
X1220Y6190
T4
X41925Y3775
X42700Y3700
X20400Y8400
X22600Y8700
X24600Y8700
X27400Y9200
X29800Y9600
X32700Y10000
X35400Y10500
X40250Y13750
X41300Y16100
X42200Y16100
X38800Y14900
X37700Y15300
T5
X43600Y3700
X46400Y15925
X46400Y14950
X46400Y14050
X46400Y13150
X46400Y12250
X46400Y11350
X46400Y10450
X46400Y9550
X46400Y8650
X46400Y7750
X46400Y6850
X46400Y5950
X46400Y5050
X46400Y4075
X43600Y4600
X43600Y16300
X43600Y15400
X43600Y14500
X43600Y13600
X43600Y12700
X43600Y11800
X43600Y10900
X43600Y10000
X43600Y5500
X43600Y8200
X43600Y7300
X43600Y6400
X43600Y9100
M30