G04 EAGLE Gerber RS-274X export*
G75*
%MOMM*%
%FSLAX34Y34*%
%LPD*%
%INBottom layer*%
%IPPOS*%
%AMOC8*
5,1,8,0,0,1.08239X$1,22.5*%
G01*
%ADD10C,0.000000*%
%ADD11C,0.452400*%
%ADD12R,1.450000X0.900000*%
%ADD13R,1.000000X0.450000*%
%ADD14C,0.600000*%
%ADD15P,1.814519X8X112.500000*%
%ADD16C,0.525000*%
%ADD17C,0.152400*%

G36*
X416824Y32552D02*
X416824Y32552D01*
X416895Y32554D01*
X416944Y32572D01*
X416996Y32580D01*
X417059Y32614D01*
X417126Y32639D01*
X417167Y32671D01*
X417213Y32696D01*
X417262Y32748D01*
X417318Y32792D01*
X417347Y32836D01*
X417382Y32874D01*
X417413Y32939D01*
X417451Y32999D01*
X417464Y33050D01*
X417486Y33097D01*
X417494Y33168D01*
X417511Y33238D01*
X417507Y33290D01*
X417513Y33341D01*
X417498Y33412D01*
X417492Y33483D01*
X417472Y33531D01*
X417461Y33582D01*
X417424Y33643D01*
X417396Y33709D01*
X417351Y33765D01*
X417335Y33793D01*
X417317Y33808D01*
X417291Y33840D01*
X415100Y36031D01*
X415100Y39469D01*
X417531Y41900D01*
X420969Y41900D01*
X422962Y39907D01*
X422978Y39895D01*
X422990Y39880D01*
X423078Y39824D01*
X423161Y39763D01*
X423180Y39758D01*
X423197Y39747D01*
X423298Y39721D01*
X423397Y39691D01*
X423416Y39692D01*
X423436Y39687D01*
X423539Y39695D01*
X423642Y39697D01*
X423661Y39704D01*
X423681Y39706D01*
X423776Y39746D01*
X423873Y39782D01*
X423889Y39794D01*
X423907Y39802D01*
X424038Y39907D01*
X425409Y41277D01*
X425460Y41305D01*
X425474Y41319D01*
X425491Y41329D01*
X425558Y41408D01*
X425630Y41483D01*
X425638Y41501D01*
X425651Y41516D01*
X425690Y41612D01*
X425733Y41706D01*
X425735Y41726D01*
X425743Y41744D01*
X425761Y41911D01*
X425761Y57588D01*
X425754Y57634D01*
X425756Y57680D01*
X425734Y57754D01*
X425722Y57831D01*
X425700Y57872D01*
X425687Y57916D01*
X425643Y57980D01*
X425606Y58049D01*
X425573Y58080D01*
X425547Y58118D01*
X425484Y58164D01*
X425428Y58218D01*
X425386Y58237D01*
X425350Y58265D01*
X425276Y58289D01*
X425205Y58322D01*
X425159Y58327D01*
X425116Y58341D01*
X425038Y58340D01*
X424961Y58349D01*
X424916Y58339D01*
X424870Y58338D01*
X424738Y58300D01*
X424720Y58296D01*
X424716Y58294D01*
X424709Y58292D01*
X422699Y57459D01*
X419301Y57459D01*
X416162Y58760D01*
X413760Y61162D01*
X412459Y64301D01*
X412459Y67699D01*
X413760Y70838D01*
X416162Y73240D01*
X419301Y74541D01*
X422699Y74541D01*
X424709Y73708D01*
X424753Y73698D01*
X424795Y73678D01*
X424872Y73670D01*
X424948Y73652D01*
X424994Y73656D01*
X425039Y73651D01*
X425116Y73668D01*
X425193Y73675D01*
X425235Y73694D01*
X425280Y73704D01*
X425347Y73744D01*
X425418Y73775D01*
X425452Y73806D01*
X425491Y73830D01*
X425542Y73889D01*
X425599Y73942D01*
X425621Y73982D01*
X425651Y74017D01*
X425680Y74089D01*
X425717Y74157D01*
X425726Y74202D01*
X425743Y74245D01*
X425758Y74381D01*
X425761Y74399D01*
X425760Y74404D01*
X425761Y74412D01*
X425761Y125588D01*
X425754Y125634D01*
X425756Y125680D01*
X425734Y125754D01*
X425722Y125831D01*
X425700Y125872D01*
X425687Y125916D01*
X425643Y125980D01*
X425606Y126049D01*
X425573Y126080D01*
X425547Y126118D01*
X425484Y126164D01*
X425428Y126218D01*
X425386Y126237D01*
X425350Y126265D01*
X425276Y126289D01*
X425205Y126322D01*
X425159Y126327D01*
X425116Y126341D01*
X425038Y126340D01*
X424961Y126349D01*
X424916Y126339D01*
X424870Y126338D01*
X424738Y126300D01*
X424720Y126296D01*
X424716Y126294D01*
X424709Y126292D01*
X422699Y125459D01*
X419301Y125459D01*
X416162Y126760D01*
X413760Y129162D01*
X412459Y132301D01*
X412459Y135699D01*
X413760Y138838D01*
X416162Y141240D01*
X416182Y141249D01*
X416265Y141300D01*
X416351Y141346D01*
X416369Y141364D01*
X416391Y141378D01*
X416453Y141453D01*
X416520Y141524D01*
X416531Y141548D01*
X416548Y141568D01*
X416583Y141659D01*
X416624Y141747D01*
X416627Y141773D01*
X416636Y141797D01*
X416640Y141895D01*
X416651Y141991D01*
X416645Y142017D01*
X416646Y142043D01*
X416619Y142137D01*
X416599Y142232D01*
X416585Y142254D01*
X416578Y142279D01*
X416522Y142359D01*
X416472Y142443D01*
X416453Y142460D01*
X416438Y142481D01*
X416360Y142539D01*
X416285Y142603D01*
X416261Y142613D01*
X416240Y142628D01*
X416148Y142658D01*
X416057Y142695D01*
X416025Y142698D01*
X416006Y142704D01*
X415974Y142704D01*
X415891Y142713D01*
X404993Y142713D01*
X404922Y142702D01*
X404851Y142700D01*
X404802Y142682D01*
X404750Y142674D01*
X404687Y142640D01*
X404620Y142615D01*
X404579Y142583D01*
X404533Y142558D01*
X404484Y142506D01*
X404428Y142462D01*
X404399Y142418D01*
X404364Y142380D01*
X404333Y142315D01*
X404295Y142255D01*
X404282Y142204D01*
X404260Y142157D01*
X404252Y142086D01*
X404235Y142016D01*
X404239Y141964D01*
X404233Y141913D01*
X404248Y141842D01*
X404254Y141771D01*
X404274Y141723D01*
X404285Y141672D01*
X404322Y141611D01*
X404350Y141545D01*
X404395Y141489D01*
X404411Y141461D01*
X404429Y141446D01*
X404455Y141414D01*
X406650Y139219D01*
X406650Y135781D01*
X404219Y133350D01*
X400781Y133350D01*
X398350Y135781D01*
X398350Y139219D01*
X400545Y141414D01*
X400587Y141472D01*
X400636Y141524D01*
X400658Y141571D01*
X400689Y141613D01*
X400710Y141682D01*
X400740Y141747D01*
X400746Y141799D01*
X400761Y141849D01*
X400759Y141920D01*
X400767Y141991D01*
X400756Y142042D01*
X400755Y142094D01*
X400730Y142162D01*
X400715Y142232D01*
X400688Y142277D01*
X400670Y142325D01*
X400625Y142381D01*
X400589Y142443D01*
X400549Y142477D01*
X400517Y142517D01*
X400456Y142556D01*
X400402Y142603D01*
X400353Y142622D01*
X400310Y142650D01*
X400240Y142668D01*
X400174Y142695D01*
X400102Y142703D01*
X400071Y142711D01*
X400048Y142709D01*
X400007Y142713D01*
X398053Y142713D01*
X396490Y144276D01*
X393356Y147410D01*
X393339Y147422D01*
X393327Y147438D01*
X393240Y147494D01*
X393156Y147554D01*
X393137Y147560D01*
X393120Y147571D01*
X393020Y147596D01*
X392921Y147626D01*
X392901Y147626D01*
X392882Y147631D01*
X392779Y147623D01*
X392675Y147620D01*
X392656Y147613D01*
X392636Y147612D01*
X392542Y147571D01*
X392444Y147536D01*
X392428Y147523D01*
X392410Y147515D01*
X392279Y147410D01*
X389719Y144850D01*
X386281Y144850D01*
X383850Y147281D01*
X383850Y149600D01*
X383836Y149691D01*
X383828Y149781D01*
X383816Y149811D01*
X383811Y149843D01*
X383768Y149924D01*
X383732Y150008D01*
X383706Y150040D01*
X383695Y150061D01*
X383672Y150083D01*
X383627Y150139D01*
X382356Y151410D01*
X382339Y151422D01*
X382327Y151438D01*
X382240Y151494D01*
X382156Y151554D01*
X382137Y151560D01*
X382120Y151571D01*
X382020Y151596D01*
X381921Y151626D01*
X381901Y151626D01*
X381882Y151631D01*
X381779Y151623D01*
X381675Y151620D01*
X381656Y151613D01*
X381636Y151612D01*
X381542Y151571D01*
X381444Y151536D01*
X381428Y151523D01*
X381410Y151515D01*
X381279Y151410D01*
X378719Y148850D01*
X375281Y148850D01*
X372641Y151490D01*
X372567Y151543D01*
X372498Y151603D01*
X372468Y151615D01*
X372441Y151634D01*
X372354Y151661D01*
X372270Y151695D01*
X372229Y151699D01*
X372206Y151706D01*
X372174Y151705D01*
X372103Y151713D01*
X359263Y151713D01*
X359172Y151699D01*
X359082Y151691D01*
X359052Y151679D01*
X359020Y151674D01*
X358939Y151631D01*
X358855Y151595D01*
X358823Y151569D01*
X358802Y151558D01*
X358780Y151535D01*
X358724Y151490D01*
X351410Y144176D01*
X351399Y144160D01*
X351383Y144148D01*
X351327Y144061D01*
X351267Y143977D01*
X351261Y143958D01*
X351250Y143941D01*
X351225Y143840D01*
X351194Y143742D01*
X351195Y143722D01*
X351190Y143702D01*
X351198Y143599D01*
X351201Y143496D01*
X351208Y143477D01*
X351209Y143457D01*
X351250Y143362D01*
X351285Y143265D01*
X351298Y143249D01*
X351306Y143231D01*
X351410Y143100D01*
X352307Y142204D01*
X352307Y133996D01*
X346504Y128193D01*
X338296Y128193D01*
X332493Y133996D01*
X332493Y142204D01*
X338296Y148007D01*
X346504Y148007D01*
X347100Y147410D01*
X347116Y147399D01*
X347128Y147383D01*
X347216Y147327D01*
X347300Y147267D01*
X347319Y147261D01*
X347335Y147250D01*
X347436Y147225D01*
X347535Y147194D01*
X347555Y147195D01*
X347574Y147190D01*
X347677Y147198D01*
X347781Y147201D01*
X347799Y147208D01*
X347819Y147209D01*
X347914Y147250D01*
X348012Y147285D01*
X348027Y147298D01*
X348045Y147306D01*
X348176Y147410D01*
X356180Y155414D01*
X356222Y155472D01*
X356271Y155524D01*
X356293Y155571D01*
X356323Y155613D01*
X356344Y155682D01*
X356375Y155747D01*
X356380Y155799D01*
X356396Y155849D01*
X356394Y155920D01*
X356402Y155991D01*
X356391Y156042D01*
X356389Y156094D01*
X356365Y156162D01*
X356350Y156232D01*
X356323Y156277D01*
X356305Y156325D01*
X356260Y156381D01*
X356223Y156443D01*
X356184Y156477D01*
X356151Y156517D01*
X356091Y156556D01*
X356036Y156603D01*
X355988Y156622D01*
X355944Y156650D01*
X355875Y156668D01*
X355808Y156695D01*
X355737Y156703D01*
X355706Y156711D01*
X355682Y156709D01*
X355642Y156713D01*
X339163Y156713D01*
X339072Y156699D01*
X338982Y156691D01*
X338952Y156679D01*
X338920Y156674D01*
X338839Y156631D01*
X338755Y156595D01*
X338723Y156569D01*
X338702Y156558D01*
X338680Y156535D01*
X338624Y156490D01*
X326160Y144026D01*
X326149Y144010D01*
X326133Y143998D01*
X326077Y143911D01*
X326017Y143827D01*
X326011Y143808D01*
X326000Y143791D01*
X325975Y143690D01*
X325944Y143592D01*
X325945Y143572D01*
X325940Y143552D01*
X325948Y143449D01*
X325951Y143346D01*
X325958Y143327D01*
X325959Y143307D01*
X326000Y143212D01*
X326035Y143115D01*
X326048Y143099D01*
X326056Y143081D01*
X326160Y142950D01*
X326907Y142204D01*
X326907Y133996D01*
X321104Y128193D01*
X312896Y128193D01*
X307093Y133996D01*
X307093Y142204D01*
X312896Y148007D01*
X321104Y148007D01*
X321850Y147260D01*
X321866Y147249D01*
X321878Y147233D01*
X321966Y147177D01*
X322050Y147117D01*
X322069Y147111D01*
X322085Y147100D01*
X322186Y147075D01*
X322285Y147044D01*
X322305Y147045D01*
X322324Y147040D01*
X322427Y147048D01*
X322531Y147051D01*
X322549Y147058D01*
X322569Y147059D01*
X322664Y147100D01*
X322762Y147135D01*
X322777Y147148D01*
X322795Y147156D01*
X322926Y147260D01*
X335080Y159414D01*
X335122Y159472D01*
X335171Y159524D01*
X335193Y159571D01*
X335223Y159613D01*
X335244Y159682D01*
X335275Y159747D01*
X335280Y159799D01*
X335296Y159849D01*
X335294Y159920D01*
X335302Y159991D01*
X335291Y160042D01*
X335289Y160094D01*
X335265Y160162D01*
X335250Y160232D01*
X335223Y160277D01*
X335205Y160325D01*
X335160Y160381D01*
X335123Y160443D01*
X335084Y160477D01*
X335051Y160517D01*
X334991Y160556D01*
X334936Y160603D01*
X334888Y160622D01*
X334844Y160650D01*
X334775Y160668D01*
X334708Y160695D01*
X334637Y160703D01*
X334606Y160711D01*
X334582Y160709D01*
X334542Y160713D01*
X317763Y160713D01*
X317672Y160699D01*
X317582Y160691D01*
X317552Y160679D01*
X317520Y160674D01*
X317439Y160631D01*
X317355Y160595D01*
X317323Y160569D01*
X317302Y160558D01*
X317280Y160535D01*
X317224Y160490D01*
X300760Y144026D01*
X300749Y144010D01*
X300733Y143998D01*
X300677Y143910D01*
X300617Y143827D01*
X300611Y143808D01*
X300600Y143791D01*
X300575Y143690D01*
X300544Y143592D01*
X300545Y143572D01*
X300540Y143552D01*
X300548Y143449D01*
X300551Y143346D01*
X300558Y143327D01*
X300559Y143307D01*
X300600Y143212D01*
X300635Y143115D01*
X300648Y143099D01*
X300656Y143081D01*
X300760Y142950D01*
X301507Y142204D01*
X301507Y133996D01*
X295704Y128193D01*
X287496Y128193D01*
X281693Y133996D01*
X281693Y142204D01*
X287496Y148007D01*
X295704Y148007D01*
X296450Y147260D01*
X296466Y147249D01*
X296479Y147233D01*
X296566Y147177D01*
X296650Y147117D01*
X296669Y147111D01*
X296685Y147100D01*
X296786Y147075D01*
X296885Y147044D01*
X296905Y147045D01*
X296924Y147040D01*
X297027Y147048D01*
X297131Y147051D01*
X297149Y147058D01*
X297169Y147059D01*
X297264Y147100D01*
X297362Y147135D01*
X297377Y147148D01*
X297395Y147156D01*
X297526Y147260D01*
X313990Y163724D01*
X315553Y165287D01*
X381947Y165287D01*
X399724Y147510D01*
X399798Y147457D01*
X399868Y147397D01*
X399898Y147385D01*
X399924Y147366D01*
X400011Y147339D01*
X400096Y147305D01*
X400137Y147301D01*
X400159Y147294D01*
X400191Y147295D01*
X400263Y147287D01*
X425000Y147287D01*
X425020Y147290D01*
X425039Y147288D01*
X425141Y147310D01*
X425243Y147326D01*
X425260Y147336D01*
X425280Y147340D01*
X425369Y147393D01*
X425460Y147442D01*
X425474Y147456D01*
X425491Y147466D01*
X425558Y147545D01*
X425630Y147620D01*
X425638Y147638D01*
X425651Y147653D01*
X425690Y147749D01*
X425733Y147843D01*
X425735Y147863D01*
X425743Y147881D01*
X425761Y148048D01*
X425761Y171188D01*
X425750Y171259D01*
X425748Y171331D01*
X425730Y171380D01*
X425722Y171431D01*
X425688Y171494D01*
X425663Y171562D01*
X425631Y171602D01*
X425606Y171648D01*
X425555Y171698D01*
X425510Y171754D01*
X425466Y171782D01*
X425428Y171818D01*
X425363Y171848D01*
X425303Y171887D01*
X425252Y171899D01*
X425205Y171921D01*
X425134Y171929D01*
X425064Y171947D01*
X425012Y171943D01*
X424961Y171948D01*
X424890Y171933D01*
X424819Y171928D01*
X424771Y171907D01*
X424720Y171896D01*
X424659Y171859D01*
X424593Y171831D01*
X424537Y171786D01*
X424509Y171770D01*
X424494Y171752D01*
X424462Y171726D01*
X422104Y169369D01*
X417494Y167459D01*
X10000Y167459D01*
X9974Y167455D01*
X9925Y167456D01*
X8619Y167327D01*
X8591Y167320D01*
X8563Y167319D01*
X8402Y167273D01*
X5987Y166273D01*
X5932Y166238D01*
X5871Y166212D01*
X5807Y166160D01*
X5778Y166143D01*
X5766Y166128D01*
X5741Y166107D01*
X3893Y164259D01*
X3854Y164206D01*
X3808Y164159D01*
X3768Y164086D01*
X3749Y164060D01*
X3743Y164041D01*
X3727Y164013D01*
X2727Y161598D01*
X2721Y161570D01*
X2708Y161545D01*
X2673Y161381D01*
X2544Y160075D01*
X2546Y160048D01*
X2541Y160000D01*
X2541Y144289D01*
X2552Y144218D01*
X2554Y144146D01*
X2572Y144097D01*
X2580Y144046D01*
X2614Y143983D01*
X2639Y143915D01*
X2671Y143875D01*
X2696Y143829D01*
X2748Y143779D01*
X2792Y143723D01*
X2836Y143695D01*
X2874Y143659D01*
X2939Y143629D01*
X2999Y143590D01*
X3050Y143578D01*
X3097Y143556D01*
X3168Y143548D01*
X3238Y143530D01*
X3290Y143534D01*
X3341Y143529D01*
X3412Y143544D01*
X3483Y143549D01*
X3531Y143570D01*
X3582Y143581D01*
X3643Y143618D01*
X3709Y143646D01*
X3765Y143690D01*
X3793Y143707D01*
X3808Y143725D01*
X3840Y143750D01*
X8096Y148007D01*
X16304Y148007D01*
X22107Y142204D01*
X22107Y133996D01*
X16304Y128193D01*
X8096Y128193D01*
X3840Y132450D01*
X3782Y132491D01*
X3730Y132541D01*
X3683Y132563D01*
X3641Y132593D01*
X3572Y132614D01*
X3507Y132644D01*
X3455Y132650D01*
X3405Y132665D01*
X3334Y132664D01*
X3263Y132671D01*
X3212Y132660D01*
X3160Y132659D01*
X3092Y132634D01*
X3022Y132619D01*
X2977Y132592D01*
X2929Y132575D01*
X2873Y132530D01*
X2811Y132493D01*
X2777Y132453D01*
X2737Y132421D01*
X2698Y132361D01*
X2651Y132306D01*
X2632Y132258D01*
X2604Y132214D01*
X2586Y132145D01*
X2559Y132078D01*
X2551Y132007D01*
X2543Y131975D01*
X2545Y131952D01*
X2541Y131911D01*
X2541Y68089D01*
X2552Y68018D01*
X2554Y67946D01*
X2572Y67897D01*
X2580Y67846D01*
X2614Y67783D01*
X2639Y67715D01*
X2671Y67675D01*
X2696Y67629D01*
X2748Y67579D01*
X2792Y67523D01*
X2836Y67495D01*
X2874Y67459D01*
X2939Y67429D01*
X2999Y67390D01*
X3050Y67378D01*
X3097Y67356D01*
X3168Y67348D01*
X3238Y67330D01*
X3290Y67334D01*
X3341Y67329D01*
X3412Y67344D01*
X3483Y67349D01*
X3531Y67370D01*
X3582Y67381D01*
X3643Y67418D01*
X3709Y67446D01*
X3765Y67490D01*
X3793Y67507D01*
X3808Y67525D01*
X3840Y67550D01*
X8096Y71807D01*
X16304Y71807D01*
X22107Y66004D01*
X22107Y57796D01*
X16304Y51993D01*
X8096Y51993D01*
X3840Y56250D01*
X3782Y56291D01*
X3730Y56341D01*
X3683Y56363D01*
X3641Y56393D01*
X3572Y56414D01*
X3507Y56444D01*
X3455Y56450D01*
X3405Y56465D01*
X3334Y56464D01*
X3263Y56471D01*
X3212Y56460D01*
X3160Y56459D01*
X3092Y56434D01*
X3022Y56419D01*
X2977Y56392D01*
X2929Y56375D01*
X2873Y56330D01*
X2811Y56293D01*
X2777Y56253D01*
X2737Y56221D01*
X2698Y56161D01*
X2651Y56106D01*
X2632Y56058D01*
X2604Y56014D01*
X2586Y55945D01*
X2559Y55878D01*
X2551Y55807D01*
X2543Y55775D01*
X2545Y55752D01*
X2541Y55711D01*
X2541Y40000D01*
X2545Y39974D01*
X2544Y39925D01*
X2673Y38619D01*
X2680Y38591D01*
X2681Y38563D01*
X2727Y38402D01*
X3727Y35987D01*
X3762Y35932D01*
X3788Y35871D01*
X3840Y35807D01*
X3857Y35778D01*
X3872Y35766D01*
X3893Y35741D01*
X5741Y33893D01*
X5794Y33854D01*
X5841Y33808D01*
X5914Y33768D01*
X5940Y33749D01*
X5959Y33743D01*
X5987Y33727D01*
X8402Y32727D01*
X8430Y32721D01*
X8455Y32708D01*
X8619Y32673D01*
X9925Y32544D01*
X9952Y32546D01*
X10000Y32541D01*
X416753Y32541D01*
X416824Y32552D01*
G37*
%LPC*%
G36*
X33496Y128193D02*
X33496Y128193D01*
X27693Y133996D01*
X27693Y142204D01*
X33496Y148007D01*
X41704Y148007D01*
X47507Y142204D01*
X47507Y133996D01*
X41704Y128193D01*
X33496Y128193D01*
G37*
%LPD*%
%LPC*%
G36*
X185896Y128193D02*
X185896Y128193D01*
X180093Y133996D01*
X180093Y142204D01*
X185896Y148007D01*
X194104Y148007D01*
X199907Y142204D01*
X199907Y133996D01*
X194104Y128193D01*
X185896Y128193D01*
G37*
%LPD*%
%LPC*%
G36*
X135096Y128193D02*
X135096Y128193D01*
X129293Y133996D01*
X129293Y142204D01*
X135096Y148007D01*
X143304Y148007D01*
X149107Y142204D01*
X149107Y133996D01*
X143304Y128193D01*
X135096Y128193D01*
G37*
%LPD*%
%LPC*%
G36*
X160496Y128193D02*
X160496Y128193D01*
X154693Y133996D01*
X154693Y142204D01*
X160496Y148007D01*
X168704Y148007D01*
X174507Y142204D01*
X174507Y133996D01*
X168704Y128193D01*
X160496Y128193D01*
G37*
%LPD*%
%LPC*%
G36*
X211296Y128193D02*
X211296Y128193D01*
X205493Y133996D01*
X205493Y142204D01*
X211296Y148007D01*
X219504Y148007D01*
X225307Y142204D01*
X225307Y133996D01*
X219504Y128193D01*
X211296Y128193D01*
G37*
%LPD*%
%LPC*%
G36*
X109696Y128193D02*
X109696Y128193D01*
X103893Y133996D01*
X103893Y142204D01*
X109696Y148007D01*
X117904Y148007D01*
X123707Y142204D01*
X123707Y133996D01*
X117904Y128193D01*
X109696Y128193D01*
G37*
%LPD*%
%LPC*%
G36*
X236696Y128193D02*
X236696Y128193D01*
X230893Y133996D01*
X230893Y142204D01*
X236696Y148007D01*
X244904Y148007D01*
X250707Y142204D01*
X250707Y133996D01*
X244904Y128193D01*
X236696Y128193D01*
G37*
%LPD*%
%LPC*%
G36*
X262096Y128193D02*
X262096Y128193D01*
X256293Y133996D01*
X256293Y142204D01*
X262096Y148007D01*
X270304Y148007D01*
X276107Y142204D01*
X276107Y133996D01*
X270304Y128193D01*
X262096Y128193D01*
G37*
%LPD*%
%LPC*%
G36*
X363696Y128193D02*
X363696Y128193D01*
X357893Y133996D01*
X357893Y142204D01*
X363696Y148007D01*
X371904Y148007D01*
X377707Y142204D01*
X377707Y133996D01*
X371904Y128193D01*
X363696Y128193D01*
G37*
%LPD*%
%LPC*%
G36*
X84296Y128193D02*
X84296Y128193D01*
X78493Y133996D01*
X78493Y142204D01*
X84296Y148007D01*
X92504Y148007D01*
X98307Y142204D01*
X98307Y133996D01*
X92504Y128193D01*
X84296Y128193D01*
G37*
%LPD*%
%LPC*%
G36*
X58896Y128193D02*
X58896Y128193D01*
X53093Y133996D01*
X53093Y142204D01*
X58896Y148007D01*
X67104Y148007D01*
X72907Y142204D01*
X72907Y133996D01*
X67104Y128193D01*
X58896Y128193D01*
G37*
%LPD*%
%LPC*%
G36*
X160496Y51993D02*
X160496Y51993D01*
X154693Y57796D01*
X154693Y66004D01*
X160496Y71807D01*
X168704Y71807D01*
X174507Y66004D01*
X174507Y57796D01*
X168704Y51993D01*
X160496Y51993D01*
G37*
%LPD*%
%LPC*%
G36*
X135096Y51993D02*
X135096Y51993D01*
X129293Y57796D01*
X129293Y66004D01*
X135096Y71807D01*
X143304Y71807D01*
X149107Y66004D01*
X149107Y57796D01*
X143304Y51993D01*
X135096Y51993D01*
G37*
%LPD*%
%LPC*%
G36*
X109696Y51993D02*
X109696Y51993D01*
X103893Y57796D01*
X103893Y66004D01*
X109696Y71807D01*
X117904Y71807D01*
X123707Y66004D01*
X123707Y57796D01*
X117904Y51993D01*
X109696Y51993D01*
G37*
%LPD*%
%LPC*%
G36*
X84296Y51993D02*
X84296Y51993D01*
X78493Y57796D01*
X78493Y66004D01*
X84296Y71807D01*
X92504Y71807D01*
X98307Y66004D01*
X98307Y57796D01*
X92504Y51993D01*
X84296Y51993D01*
G37*
%LPD*%
%LPC*%
G36*
X58896Y51993D02*
X58896Y51993D01*
X53093Y57796D01*
X53093Y66004D01*
X58896Y71807D01*
X67104Y71807D01*
X72907Y66004D01*
X72907Y57796D01*
X67104Y51993D01*
X58896Y51993D01*
G37*
%LPD*%
%LPC*%
G36*
X338296Y51993D02*
X338296Y51993D01*
X332493Y57796D01*
X332493Y66004D01*
X338296Y71807D01*
X346504Y71807D01*
X352307Y66004D01*
X352307Y57796D01*
X346504Y51993D01*
X338296Y51993D01*
G37*
%LPD*%
%LPC*%
G36*
X185896Y51993D02*
X185896Y51993D01*
X180093Y57796D01*
X180093Y66004D01*
X185896Y71807D01*
X194104Y71807D01*
X199907Y66004D01*
X199907Y57796D01*
X194104Y51993D01*
X185896Y51993D01*
G37*
%LPD*%
%LPC*%
G36*
X211296Y51993D02*
X211296Y51993D01*
X205493Y57796D01*
X205493Y66004D01*
X211296Y71807D01*
X219504Y71807D01*
X225307Y66004D01*
X225307Y57796D01*
X219504Y51993D01*
X211296Y51993D01*
G37*
%LPD*%
%LPC*%
G36*
X312896Y51993D02*
X312896Y51993D01*
X307093Y57796D01*
X307093Y66004D01*
X312896Y71807D01*
X321104Y71807D01*
X326907Y66004D01*
X326907Y57796D01*
X321104Y51993D01*
X312896Y51993D01*
G37*
%LPD*%
%LPC*%
G36*
X287496Y51993D02*
X287496Y51993D01*
X281693Y57796D01*
X281693Y66004D01*
X287496Y71807D01*
X295704Y71807D01*
X301507Y66004D01*
X301507Y57796D01*
X295704Y51993D01*
X287496Y51993D01*
G37*
%LPD*%
%LPC*%
G36*
X262096Y51993D02*
X262096Y51993D01*
X256293Y57796D01*
X256293Y66004D01*
X262096Y71807D01*
X270304Y71807D01*
X276107Y66004D01*
X276107Y57796D01*
X270304Y51993D01*
X262096Y51993D01*
G37*
%LPD*%
%LPC*%
G36*
X236696Y51993D02*
X236696Y51993D01*
X230893Y57796D01*
X230893Y66004D01*
X236696Y71807D01*
X244904Y71807D01*
X250707Y66004D01*
X250707Y57796D01*
X244904Y51993D01*
X236696Y51993D01*
G37*
%LPD*%
%LPC*%
G36*
X369323Y63423D02*
X369323Y63423D01*
X369323Y72823D01*
X372324Y72823D01*
X378723Y66424D01*
X378723Y63423D01*
X369323Y63423D01*
G37*
%LPD*%
%LPC*%
G36*
X39123Y63423D02*
X39123Y63423D01*
X39123Y72823D01*
X42124Y72823D01*
X48523Y66424D01*
X48523Y63423D01*
X39123Y63423D01*
G37*
%LPD*%
%LPC*%
G36*
X26677Y63423D02*
X26677Y63423D01*
X26677Y66424D01*
X33076Y72823D01*
X36077Y72823D01*
X36077Y63423D01*
X26677Y63423D01*
G37*
%LPD*%
%LPC*%
G36*
X356877Y63423D02*
X356877Y63423D01*
X356877Y66424D01*
X363276Y72823D01*
X366277Y72823D01*
X366277Y63423D01*
X356877Y63423D01*
G37*
%LPD*%
%LPC*%
G36*
X369323Y50977D02*
X369323Y50977D01*
X369323Y60377D01*
X378723Y60377D01*
X378723Y57376D01*
X372324Y50977D01*
X369323Y50977D01*
G37*
%LPD*%
%LPC*%
G36*
X39123Y50977D02*
X39123Y50977D01*
X39123Y60377D01*
X48523Y60377D01*
X48523Y57376D01*
X42124Y50977D01*
X39123Y50977D01*
G37*
%LPD*%
%LPC*%
G36*
X363276Y50977D02*
X363276Y50977D01*
X356877Y57376D01*
X356877Y60377D01*
X366277Y60377D01*
X366277Y50977D01*
X363276Y50977D01*
G37*
%LPD*%
%LPC*%
G36*
X33076Y50977D02*
X33076Y50977D01*
X26677Y57376D01*
X26677Y60377D01*
X36077Y60377D01*
X36077Y50977D01*
X33076Y50977D01*
G37*
%LPD*%
%LPC*%
G36*
X296281Y91850D02*
X296281Y91850D01*
X293850Y94281D01*
X293850Y97719D01*
X296281Y100150D01*
X299719Y100150D01*
X302150Y97719D01*
X302150Y94281D01*
X299719Y91850D01*
X296281Y91850D01*
G37*
%LPD*%
%LPC*%
G36*
X325281Y95850D02*
X325281Y95850D01*
X322850Y98281D01*
X322850Y101719D01*
X325281Y104150D01*
X328719Y104150D01*
X331150Y101719D01*
X331150Y98281D01*
X328719Y95850D01*
X325281Y95850D01*
G37*
%LPD*%
%LPC*%
G36*
X244281Y82850D02*
X244281Y82850D01*
X241850Y85281D01*
X241850Y88719D01*
X244281Y91150D01*
X247719Y91150D01*
X250150Y88719D01*
X250150Y85281D01*
X247719Y82850D01*
X244281Y82850D01*
G37*
%LPD*%
%LPC*%
G36*
X352281Y100850D02*
X352281Y100850D01*
X349850Y103281D01*
X349850Y106719D01*
X352281Y109150D01*
X355719Y109150D01*
X358150Y106719D01*
X358150Y103281D01*
X355719Y100850D01*
X352281Y100850D01*
G37*
%LPD*%
%LPC*%
G36*
X224281Y82850D02*
X224281Y82850D01*
X221850Y85281D01*
X221850Y88719D01*
X224281Y91150D01*
X227719Y91150D01*
X230150Y88719D01*
X230150Y85281D01*
X227719Y82850D01*
X224281Y82850D01*
G37*
%LPD*%
%LPC*%
G36*
X202281Y79850D02*
X202281Y79850D01*
X199850Y82281D01*
X199850Y85719D01*
X202281Y88150D01*
X205719Y88150D01*
X208150Y85719D01*
X208150Y82281D01*
X205719Y79850D01*
X202281Y79850D01*
G37*
%LPD*%
%LPC*%
G36*
X272281Y87850D02*
X272281Y87850D01*
X269850Y90281D01*
X269850Y93719D01*
X272281Y96150D01*
X275719Y96150D01*
X278150Y93719D01*
X278150Y90281D01*
X275719Y87850D01*
X272281Y87850D01*
G37*
%LPD*%
%LPC*%
G36*
X367799Y61899D02*
X367799Y61899D01*
X367799Y61901D01*
X367801Y61901D01*
X367801Y61899D01*
X367799Y61899D01*
G37*
%LPD*%
%LPC*%
G36*
X37599Y61899D02*
X37599Y61899D01*
X37599Y61901D01*
X37601Y61901D01*
X37601Y61899D01*
X37599Y61899D01*
G37*
%LPD*%
D10*
X10000Y170000D02*
X415000Y170000D01*
X415242Y170003D01*
X415483Y170012D01*
X415724Y170026D01*
X415965Y170047D01*
X416205Y170073D01*
X416445Y170105D01*
X416684Y170143D01*
X416921Y170186D01*
X417158Y170236D01*
X417393Y170291D01*
X417627Y170351D01*
X417859Y170418D01*
X418090Y170489D01*
X418319Y170567D01*
X418546Y170650D01*
X418771Y170738D01*
X418994Y170832D01*
X419214Y170931D01*
X419432Y171036D01*
X419647Y171145D01*
X419860Y171260D01*
X420070Y171380D01*
X420276Y171505D01*
X420480Y171635D01*
X420681Y171770D01*
X420878Y171910D01*
X421072Y172054D01*
X421262Y172203D01*
X421448Y172357D01*
X421631Y172515D01*
X421810Y172677D01*
X421985Y172844D01*
X422156Y173015D01*
X422323Y173190D01*
X422485Y173369D01*
X422643Y173552D01*
X422797Y173738D01*
X422946Y173928D01*
X423090Y174122D01*
X423230Y174319D01*
X423365Y174520D01*
X423495Y174724D01*
X423620Y174930D01*
X423740Y175140D01*
X423855Y175353D01*
X423964Y175568D01*
X424069Y175786D01*
X424168Y176006D01*
X424262Y176229D01*
X424350Y176454D01*
X424433Y176681D01*
X424511Y176910D01*
X424582Y177141D01*
X424649Y177373D01*
X424709Y177607D01*
X424764Y177842D01*
X424814Y178079D01*
X424857Y178316D01*
X424895Y178555D01*
X424927Y178795D01*
X424953Y179035D01*
X424974Y179276D01*
X424988Y179517D01*
X424997Y179758D01*
X425000Y180000D01*
X425000Y190000D01*
X10000Y170000D02*
X9758Y169997D01*
X9517Y169988D01*
X9276Y169974D01*
X9035Y169953D01*
X8795Y169927D01*
X8555Y169895D01*
X8316Y169857D01*
X8079Y169814D01*
X7842Y169764D01*
X7607Y169709D01*
X7373Y169649D01*
X7141Y169582D01*
X6910Y169511D01*
X6681Y169433D01*
X6454Y169350D01*
X6229Y169262D01*
X6006Y169168D01*
X5786Y169069D01*
X5568Y168964D01*
X5353Y168855D01*
X5140Y168740D01*
X4930Y168620D01*
X4724Y168495D01*
X4520Y168365D01*
X4319Y168230D01*
X4122Y168090D01*
X3928Y167946D01*
X3738Y167797D01*
X3552Y167643D01*
X3369Y167485D01*
X3190Y167323D01*
X3015Y167156D01*
X2844Y166985D01*
X2677Y166810D01*
X2515Y166631D01*
X2357Y166448D01*
X2203Y166262D01*
X2054Y166072D01*
X1910Y165878D01*
X1770Y165681D01*
X1635Y165480D01*
X1505Y165276D01*
X1380Y165070D01*
X1260Y164860D01*
X1145Y164647D01*
X1036Y164432D01*
X931Y164214D01*
X832Y163994D01*
X738Y163771D01*
X650Y163546D01*
X567Y163319D01*
X489Y163090D01*
X418Y162859D01*
X351Y162627D01*
X291Y162393D01*
X236Y162158D01*
X186Y161921D01*
X143Y161684D01*
X105Y161445D01*
X73Y161205D01*
X47Y160965D01*
X26Y160724D01*
X12Y160483D01*
X3Y160242D01*
X0Y160000D01*
X0Y40000D01*
X3Y39758D01*
X12Y39517D01*
X26Y39276D01*
X47Y39035D01*
X73Y38795D01*
X105Y38555D01*
X143Y38316D01*
X186Y38079D01*
X236Y37842D01*
X291Y37607D01*
X351Y37373D01*
X418Y37141D01*
X489Y36910D01*
X567Y36681D01*
X650Y36454D01*
X738Y36229D01*
X832Y36006D01*
X931Y35786D01*
X1036Y35568D01*
X1145Y35353D01*
X1260Y35140D01*
X1380Y34930D01*
X1505Y34724D01*
X1635Y34520D01*
X1770Y34319D01*
X1910Y34122D01*
X2054Y33928D01*
X2203Y33738D01*
X2357Y33552D01*
X2515Y33369D01*
X2677Y33190D01*
X2844Y33015D01*
X3015Y32844D01*
X3190Y32677D01*
X3369Y32515D01*
X3552Y32357D01*
X3738Y32203D01*
X3928Y32054D01*
X4122Y31910D01*
X4319Y31770D01*
X4520Y31635D01*
X4724Y31505D01*
X4930Y31380D01*
X5140Y31260D01*
X5353Y31145D01*
X5568Y31036D01*
X5786Y30931D01*
X6006Y30832D01*
X6229Y30738D01*
X6454Y30650D01*
X6681Y30567D01*
X6910Y30489D01*
X7141Y30418D01*
X7373Y30351D01*
X7607Y30291D01*
X7842Y30236D01*
X8079Y30186D01*
X8316Y30143D01*
X8555Y30105D01*
X8795Y30073D01*
X9035Y30047D01*
X9276Y30026D01*
X9517Y30012D01*
X9758Y30003D01*
X10000Y30000D01*
X425000Y20000D02*
X425000Y10000D01*
X425000Y20000D02*
X424997Y20242D01*
X424988Y20483D01*
X424974Y20724D01*
X424953Y20965D01*
X424927Y21205D01*
X424895Y21445D01*
X424857Y21684D01*
X424814Y21921D01*
X424764Y22158D01*
X424709Y22393D01*
X424649Y22627D01*
X424582Y22859D01*
X424511Y23090D01*
X424433Y23319D01*
X424350Y23546D01*
X424262Y23771D01*
X424168Y23994D01*
X424069Y24214D01*
X423964Y24432D01*
X423855Y24647D01*
X423740Y24860D01*
X423620Y25070D01*
X423495Y25276D01*
X423365Y25480D01*
X423230Y25681D01*
X423090Y25878D01*
X422946Y26072D01*
X422797Y26262D01*
X422643Y26448D01*
X422485Y26631D01*
X422323Y26810D01*
X422156Y26985D01*
X421985Y27156D01*
X421810Y27323D01*
X421631Y27485D01*
X421448Y27643D01*
X421262Y27797D01*
X421072Y27946D01*
X420878Y28090D01*
X420681Y28230D01*
X420480Y28365D01*
X420276Y28495D01*
X420070Y28620D01*
X419860Y28740D01*
X419647Y28855D01*
X419432Y28964D01*
X419214Y29069D01*
X418994Y29168D01*
X418771Y29262D01*
X418546Y29350D01*
X418319Y29433D01*
X418090Y29511D01*
X417859Y29582D01*
X417627Y29649D01*
X417393Y29709D01*
X417158Y29764D01*
X416921Y29814D01*
X416684Y29857D01*
X416445Y29895D01*
X416205Y29927D01*
X415965Y29953D01*
X415724Y29974D01*
X415483Y29988D01*
X415242Y29997D01*
X415000Y30000D01*
X10000Y30000D01*
X415000Y134000D02*
X415002Y134154D01*
X415008Y134309D01*
X415018Y134463D01*
X415032Y134617D01*
X415050Y134770D01*
X415071Y134923D01*
X415097Y135076D01*
X415127Y135227D01*
X415160Y135378D01*
X415198Y135528D01*
X415239Y135677D01*
X415284Y135825D01*
X415333Y135971D01*
X415386Y136117D01*
X415442Y136260D01*
X415502Y136403D01*
X415566Y136543D01*
X415633Y136683D01*
X415704Y136820D01*
X415778Y136955D01*
X415856Y137089D01*
X415937Y137220D01*
X416022Y137349D01*
X416110Y137477D01*
X416201Y137601D01*
X416295Y137724D01*
X416393Y137844D01*
X416493Y137961D01*
X416597Y138076D01*
X416703Y138188D01*
X416812Y138297D01*
X416924Y138403D01*
X417039Y138507D01*
X417156Y138607D01*
X417276Y138705D01*
X417399Y138799D01*
X417523Y138890D01*
X417651Y138978D01*
X417780Y139063D01*
X417911Y139144D01*
X418045Y139222D01*
X418180Y139296D01*
X418317Y139367D01*
X418457Y139434D01*
X418597Y139498D01*
X418740Y139558D01*
X418883Y139614D01*
X419029Y139667D01*
X419175Y139716D01*
X419323Y139761D01*
X419472Y139802D01*
X419622Y139840D01*
X419773Y139873D01*
X419924Y139903D01*
X420077Y139929D01*
X420230Y139950D01*
X420383Y139968D01*
X420537Y139982D01*
X420691Y139992D01*
X420846Y139998D01*
X421000Y140000D01*
X421154Y139998D01*
X421309Y139992D01*
X421463Y139982D01*
X421617Y139968D01*
X421770Y139950D01*
X421923Y139929D01*
X422076Y139903D01*
X422227Y139873D01*
X422378Y139840D01*
X422528Y139802D01*
X422677Y139761D01*
X422825Y139716D01*
X422971Y139667D01*
X423117Y139614D01*
X423260Y139558D01*
X423403Y139498D01*
X423543Y139434D01*
X423683Y139367D01*
X423820Y139296D01*
X423955Y139222D01*
X424089Y139144D01*
X424220Y139063D01*
X424349Y138978D01*
X424477Y138890D01*
X424601Y138799D01*
X424724Y138705D01*
X424844Y138607D01*
X424961Y138507D01*
X425076Y138403D01*
X425188Y138297D01*
X425297Y138188D01*
X425403Y138076D01*
X425507Y137961D01*
X425607Y137844D01*
X425705Y137724D01*
X425799Y137601D01*
X425890Y137477D01*
X425978Y137349D01*
X426063Y137220D01*
X426144Y137089D01*
X426222Y136955D01*
X426296Y136820D01*
X426367Y136683D01*
X426434Y136543D01*
X426498Y136403D01*
X426558Y136260D01*
X426614Y136117D01*
X426667Y135971D01*
X426716Y135825D01*
X426761Y135677D01*
X426802Y135528D01*
X426840Y135378D01*
X426873Y135227D01*
X426903Y135076D01*
X426929Y134923D01*
X426950Y134770D01*
X426968Y134617D01*
X426982Y134463D01*
X426992Y134309D01*
X426998Y134154D01*
X427000Y134000D01*
X426998Y133846D01*
X426992Y133691D01*
X426982Y133537D01*
X426968Y133383D01*
X426950Y133230D01*
X426929Y133077D01*
X426903Y132924D01*
X426873Y132773D01*
X426840Y132622D01*
X426802Y132472D01*
X426761Y132323D01*
X426716Y132175D01*
X426667Y132029D01*
X426614Y131883D01*
X426558Y131740D01*
X426498Y131597D01*
X426434Y131457D01*
X426367Y131317D01*
X426296Y131180D01*
X426222Y131045D01*
X426144Y130911D01*
X426063Y130780D01*
X425978Y130651D01*
X425890Y130523D01*
X425799Y130399D01*
X425705Y130276D01*
X425607Y130156D01*
X425507Y130039D01*
X425403Y129924D01*
X425297Y129812D01*
X425188Y129703D01*
X425076Y129597D01*
X424961Y129493D01*
X424844Y129393D01*
X424724Y129295D01*
X424601Y129201D01*
X424477Y129110D01*
X424349Y129022D01*
X424220Y128937D01*
X424089Y128856D01*
X423955Y128778D01*
X423820Y128704D01*
X423683Y128633D01*
X423543Y128566D01*
X423403Y128502D01*
X423260Y128442D01*
X423117Y128386D01*
X422971Y128333D01*
X422825Y128284D01*
X422677Y128239D01*
X422528Y128198D01*
X422378Y128160D01*
X422227Y128127D01*
X422076Y128097D01*
X421923Y128071D01*
X421770Y128050D01*
X421617Y128032D01*
X421463Y128018D01*
X421309Y128008D01*
X421154Y128002D01*
X421000Y128000D01*
X420846Y128002D01*
X420691Y128008D01*
X420537Y128018D01*
X420383Y128032D01*
X420230Y128050D01*
X420077Y128071D01*
X419924Y128097D01*
X419773Y128127D01*
X419622Y128160D01*
X419472Y128198D01*
X419323Y128239D01*
X419175Y128284D01*
X419029Y128333D01*
X418883Y128386D01*
X418740Y128442D01*
X418597Y128502D01*
X418457Y128566D01*
X418317Y128633D01*
X418180Y128704D01*
X418045Y128778D01*
X417911Y128856D01*
X417780Y128937D01*
X417651Y129022D01*
X417523Y129110D01*
X417399Y129201D01*
X417276Y129295D01*
X417156Y129393D01*
X417039Y129493D01*
X416924Y129597D01*
X416812Y129703D01*
X416703Y129812D01*
X416597Y129924D01*
X416493Y130039D01*
X416393Y130156D01*
X416295Y130276D01*
X416201Y130399D01*
X416110Y130523D01*
X416022Y130651D01*
X415937Y130780D01*
X415856Y130911D01*
X415778Y131045D01*
X415704Y131180D01*
X415633Y131317D01*
X415566Y131457D01*
X415502Y131597D01*
X415442Y131740D01*
X415386Y131883D01*
X415333Y132029D01*
X415284Y132175D01*
X415239Y132323D01*
X415198Y132472D01*
X415160Y132622D01*
X415127Y132773D01*
X415097Y132924D01*
X415071Y133077D01*
X415050Y133230D01*
X415032Y133383D01*
X415018Y133537D01*
X415008Y133691D01*
X415002Y133846D01*
X415000Y134000D01*
X415000Y66000D02*
X415002Y66154D01*
X415008Y66309D01*
X415018Y66463D01*
X415032Y66617D01*
X415050Y66770D01*
X415071Y66923D01*
X415097Y67076D01*
X415127Y67227D01*
X415160Y67378D01*
X415198Y67528D01*
X415239Y67677D01*
X415284Y67825D01*
X415333Y67971D01*
X415386Y68117D01*
X415442Y68260D01*
X415502Y68403D01*
X415566Y68543D01*
X415633Y68683D01*
X415704Y68820D01*
X415778Y68955D01*
X415856Y69089D01*
X415937Y69220D01*
X416022Y69349D01*
X416110Y69477D01*
X416201Y69601D01*
X416295Y69724D01*
X416393Y69844D01*
X416493Y69961D01*
X416597Y70076D01*
X416703Y70188D01*
X416812Y70297D01*
X416924Y70403D01*
X417039Y70507D01*
X417156Y70607D01*
X417276Y70705D01*
X417399Y70799D01*
X417523Y70890D01*
X417651Y70978D01*
X417780Y71063D01*
X417911Y71144D01*
X418045Y71222D01*
X418180Y71296D01*
X418317Y71367D01*
X418457Y71434D01*
X418597Y71498D01*
X418740Y71558D01*
X418883Y71614D01*
X419029Y71667D01*
X419175Y71716D01*
X419323Y71761D01*
X419472Y71802D01*
X419622Y71840D01*
X419773Y71873D01*
X419924Y71903D01*
X420077Y71929D01*
X420230Y71950D01*
X420383Y71968D01*
X420537Y71982D01*
X420691Y71992D01*
X420846Y71998D01*
X421000Y72000D01*
X421154Y71998D01*
X421309Y71992D01*
X421463Y71982D01*
X421617Y71968D01*
X421770Y71950D01*
X421923Y71929D01*
X422076Y71903D01*
X422227Y71873D01*
X422378Y71840D01*
X422528Y71802D01*
X422677Y71761D01*
X422825Y71716D01*
X422971Y71667D01*
X423117Y71614D01*
X423260Y71558D01*
X423403Y71498D01*
X423543Y71434D01*
X423683Y71367D01*
X423820Y71296D01*
X423955Y71222D01*
X424089Y71144D01*
X424220Y71063D01*
X424349Y70978D01*
X424477Y70890D01*
X424601Y70799D01*
X424724Y70705D01*
X424844Y70607D01*
X424961Y70507D01*
X425076Y70403D01*
X425188Y70297D01*
X425297Y70188D01*
X425403Y70076D01*
X425507Y69961D01*
X425607Y69844D01*
X425705Y69724D01*
X425799Y69601D01*
X425890Y69477D01*
X425978Y69349D01*
X426063Y69220D01*
X426144Y69089D01*
X426222Y68955D01*
X426296Y68820D01*
X426367Y68683D01*
X426434Y68543D01*
X426498Y68403D01*
X426558Y68260D01*
X426614Y68117D01*
X426667Y67971D01*
X426716Y67825D01*
X426761Y67677D01*
X426802Y67528D01*
X426840Y67378D01*
X426873Y67227D01*
X426903Y67076D01*
X426929Y66923D01*
X426950Y66770D01*
X426968Y66617D01*
X426982Y66463D01*
X426992Y66309D01*
X426998Y66154D01*
X427000Y66000D01*
X426998Y65846D01*
X426992Y65691D01*
X426982Y65537D01*
X426968Y65383D01*
X426950Y65230D01*
X426929Y65077D01*
X426903Y64924D01*
X426873Y64773D01*
X426840Y64622D01*
X426802Y64472D01*
X426761Y64323D01*
X426716Y64175D01*
X426667Y64029D01*
X426614Y63883D01*
X426558Y63740D01*
X426498Y63597D01*
X426434Y63457D01*
X426367Y63317D01*
X426296Y63180D01*
X426222Y63045D01*
X426144Y62911D01*
X426063Y62780D01*
X425978Y62651D01*
X425890Y62523D01*
X425799Y62399D01*
X425705Y62276D01*
X425607Y62156D01*
X425507Y62039D01*
X425403Y61924D01*
X425297Y61812D01*
X425188Y61703D01*
X425076Y61597D01*
X424961Y61493D01*
X424844Y61393D01*
X424724Y61295D01*
X424601Y61201D01*
X424477Y61110D01*
X424349Y61022D01*
X424220Y60937D01*
X424089Y60856D01*
X423955Y60778D01*
X423820Y60704D01*
X423683Y60633D01*
X423543Y60566D01*
X423403Y60502D01*
X423260Y60442D01*
X423117Y60386D01*
X422971Y60333D01*
X422825Y60284D01*
X422677Y60239D01*
X422528Y60198D01*
X422378Y60160D01*
X422227Y60127D01*
X422076Y60097D01*
X421923Y60071D01*
X421770Y60050D01*
X421617Y60032D01*
X421463Y60018D01*
X421309Y60008D01*
X421154Y60002D01*
X421000Y60000D01*
X420846Y60002D01*
X420691Y60008D01*
X420537Y60018D01*
X420383Y60032D01*
X420230Y60050D01*
X420077Y60071D01*
X419924Y60097D01*
X419773Y60127D01*
X419622Y60160D01*
X419472Y60198D01*
X419323Y60239D01*
X419175Y60284D01*
X419029Y60333D01*
X418883Y60386D01*
X418740Y60442D01*
X418597Y60502D01*
X418457Y60566D01*
X418317Y60633D01*
X418180Y60704D01*
X418045Y60778D01*
X417911Y60856D01*
X417780Y60937D01*
X417651Y61022D01*
X417523Y61110D01*
X417399Y61201D01*
X417276Y61295D01*
X417156Y61393D01*
X417039Y61493D01*
X416924Y61597D01*
X416812Y61703D01*
X416703Y61812D01*
X416597Y61924D01*
X416493Y62039D01*
X416393Y62156D01*
X416295Y62276D01*
X416201Y62399D01*
X416110Y62523D01*
X416022Y62651D01*
X415937Y62780D01*
X415856Y62911D01*
X415778Y63045D01*
X415704Y63180D01*
X415633Y63317D01*
X415566Y63457D01*
X415502Y63597D01*
X415442Y63740D01*
X415386Y63883D01*
X415333Y64029D01*
X415284Y64175D01*
X415239Y64323D01*
X415198Y64472D01*
X415160Y64622D01*
X415127Y64773D01*
X415097Y64924D01*
X415071Y65077D01*
X415050Y65230D01*
X415032Y65383D01*
X415018Y65537D01*
X415008Y65691D01*
X415002Y65846D01*
X415000Y66000D01*
X425000Y190000D02*
X425003Y190242D01*
X425012Y190483D01*
X425026Y190724D01*
X425047Y190965D01*
X425073Y191205D01*
X425105Y191445D01*
X425143Y191684D01*
X425186Y191921D01*
X425236Y192158D01*
X425291Y192393D01*
X425351Y192627D01*
X425418Y192859D01*
X425489Y193090D01*
X425567Y193319D01*
X425650Y193546D01*
X425738Y193771D01*
X425832Y193994D01*
X425931Y194214D01*
X426036Y194432D01*
X426145Y194647D01*
X426260Y194860D01*
X426380Y195070D01*
X426505Y195276D01*
X426635Y195480D01*
X426770Y195681D01*
X426910Y195878D01*
X427054Y196072D01*
X427203Y196262D01*
X427357Y196448D01*
X427515Y196631D01*
X427677Y196810D01*
X427844Y196985D01*
X428015Y197156D01*
X428190Y197323D01*
X428369Y197485D01*
X428552Y197643D01*
X428738Y197797D01*
X428928Y197946D01*
X429122Y198090D01*
X429319Y198230D01*
X429520Y198365D01*
X429724Y198495D01*
X429930Y198620D01*
X430140Y198740D01*
X430353Y198855D01*
X430568Y198964D01*
X430786Y199069D01*
X431006Y199168D01*
X431229Y199262D01*
X431454Y199350D01*
X431681Y199433D01*
X431910Y199511D01*
X432141Y199582D01*
X432373Y199649D01*
X432607Y199709D01*
X432842Y199764D01*
X433079Y199814D01*
X433316Y199857D01*
X433555Y199895D01*
X433795Y199927D01*
X434035Y199953D01*
X434276Y199974D01*
X434517Y199988D01*
X434758Y199997D01*
X435000Y200000D01*
X465000Y200000D01*
X465002Y199860D01*
X465008Y199720D01*
X465018Y199580D01*
X465031Y199440D01*
X465049Y199301D01*
X465071Y199162D01*
X465096Y199025D01*
X465125Y198887D01*
X465158Y198751D01*
X465195Y198616D01*
X465236Y198482D01*
X465281Y198349D01*
X465329Y198217D01*
X465381Y198087D01*
X465436Y197958D01*
X465495Y197831D01*
X465558Y197705D01*
X465624Y197581D01*
X465693Y197460D01*
X465766Y197340D01*
X465843Y197222D01*
X465922Y197107D01*
X466005Y196993D01*
X466091Y196883D01*
X466180Y196774D01*
X466272Y196668D01*
X466367Y196565D01*
X466464Y196464D01*
X466565Y196367D01*
X466668Y196272D01*
X466774Y196180D01*
X466883Y196091D01*
X466993Y196005D01*
X467107Y195922D01*
X467222Y195843D01*
X467340Y195766D01*
X467460Y195693D01*
X467581Y195624D01*
X467705Y195558D01*
X467831Y195495D01*
X467958Y195436D01*
X468087Y195381D01*
X468217Y195329D01*
X468349Y195281D01*
X468482Y195236D01*
X468616Y195195D01*
X468751Y195158D01*
X468887Y195125D01*
X469025Y195096D01*
X469162Y195071D01*
X469301Y195049D01*
X469440Y195031D01*
X469580Y195018D01*
X469720Y195008D01*
X469860Y195002D01*
X470000Y195000D01*
X470140Y195002D01*
X470280Y195008D01*
X470420Y195018D01*
X470560Y195031D01*
X470699Y195049D01*
X470838Y195071D01*
X470975Y195096D01*
X471113Y195125D01*
X471249Y195158D01*
X471384Y195195D01*
X471518Y195236D01*
X471651Y195281D01*
X471783Y195329D01*
X471913Y195381D01*
X472042Y195436D01*
X472169Y195495D01*
X472295Y195558D01*
X472419Y195624D01*
X472540Y195693D01*
X472660Y195766D01*
X472778Y195843D01*
X472893Y195922D01*
X473007Y196005D01*
X473117Y196091D01*
X473226Y196180D01*
X473332Y196272D01*
X473435Y196367D01*
X473536Y196464D01*
X473633Y196565D01*
X473728Y196668D01*
X473820Y196774D01*
X473909Y196883D01*
X473995Y196993D01*
X474078Y197107D01*
X474157Y197222D01*
X474234Y197340D01*
X474307Y197460D01*
X474376Y197581D01*
X474442Y197705D01*
X474505Y197831D01*
X474564Y197958D01*
X474619Y198087D01*
X474671Y198217D01*
X474719Y198349D01*
X474764Y198482D01*
X474805Y198616D01*
X474842Y198751D01*
X474875Y198887D01*
X474904Y199025D01*
X474929Y199162D01*
X474951Y199301D01*
X474969Y199440D01*
X474982Y199580D01*
X474992Y199720D01*
X474998Y199860D01*
X475000Y200000D01*
X480000Y200000D01*
X480242Y199997D01*
X480483Y199988D01*
X480724Y199974D01*
X480965Y199953D01*
X481205Y199927D01*
X481445Y199895D01*
X481684Y199857D01*
X481921Y199814D01*
X482158Y199764D01*
X482393Y199709D01*
X482627Y199649D01*
X482859Y199582D01*
X483090Y199511D01*
X483319Y199433D01*
X483546Y199350D01*
X483771Y199262D01*
X483994Y199168D01*
X484214Y199069D01*
X484432Y198964D01*
X484647Y198855D01*
X484860Y198740D01*
X485070Y198620D01*
X485276Y198495D01*
X485480Y198365D01*
X485681Y198230D01*
X485878Y198090D01*
X486072Y197946D01*
X486262Y197797D01*
X486448Y197643D01*
X486631Y197485D01*
X486810Y197323D01*
X486985Y197156D01*
X487156Y196985D01*
X487323Y196810D01*
X487485Y196631D01*
X487643Y196448D01*
X487797Y196262D01*
X487946Y196072D01*
X488090Y195878D01*
X488230Y195681D01*
X488365Y195480D01*
X488495Y195276D01*
X488620Y195070D01*
X488740Y194860D01*
X488855Y194647D01*
X488964Y194432D01*
X489069Y194214D01*
X489168Y193994D01*
X489262Y193771D01*
X489350Y193546D01*
X489433Y193319D01*
X489511Y193090D01*
X489582Y192859D01*
X489649Y192627D01*
X489709Y192393D01*
X489764Y192158D01*
X489814Y191921D01*
X489857Y191684D01*
X489895Y191445D01*
X489927Y191205D01*
X489953Y190965D01*
X489974Y190724D01*
X489988Y190483D01*
X489997Y190242D01*
X490000Y190000D01*
X490000Y10000D01*
X489997Y9758D01*
X489988Y9517D01*
X489974Y9276D01*
X489953Y9035D01*
X489927Y8795D01*
X489895Y8555D01*
X489857Y8316D01*
X489814Y8079D01*
X489764Y7842D01*
X489709Y7607D01*
X489649Y7373D01*
X489582Y7141D01*
X489511Y6910D01*
X489433Y6681D01*
X489350Y6454D01*
X489262Y6229D01*
X489168Y6006D01*
X489069Y5786D01*
X488964Y5568D01*
X488855Y5353D01*
X488740Y5140D01*
X488620Y4930D01*
X488495Y4724D01*
X488365Y4520D01*
X488230Y4319D01*
X488090Y4122D01*
X487946Y3928D01*
X487797Y3738D01*
X487643Y3552D01*
X487485Y3369D01*
X487323Y3190D01*
X487156Y3015D01*
X486985Y2844D01*
X486810Y2677D01*
X486631Y2515D01*
X486448Y2357D01*
X486262Y2203D01*
X486072Y2054D01*
X485878Y1910D01*
X485681Y1770D01*
X485480Y1635D01*
X485276Y1505D01*
X485070Y1380D01*
X484860Y1260D01*
X484647Y1145D01*
X484432Y1036D01*
X484214Y931D01*
X483994Y832D01*
X483771Y738D01*
X483546Y650D01*
X483319Y567D01*
X483090Y489D01*
X482859Y418D01*
X482627Y351D01*
X482393Y291D01*
X482158Y236D01*
X481921Y186D01*
X481684Y143D01*
X481445Y105D01*
X481205Y73D01*
X480965Y47D01*
X480724Y26D01*
X480483Y12D01*
X480242Y3D01*
X480000Y0D01*
X475000Y0D01*
X474998Y140D01*
X474992Y280D01*
X474982Y420D01*
X474969Y560D01*
X474951Y699D01*
X474929Y838D01*
X474904Y975D01*
X474875Y1113D01*
X474842Y1249D01*
X474805Y1384D01*
X474764Y1518D01*
X474719Y1651D01*
X474671Y1783D01*
X474619Y1913D01*
X474564Y2042D01*
X474505Y2169D01*
X474442Y2295D01*
X474376Y2419D01*
X474307Y2540D01*
X474234Y2660D01*
X474157Y2778D01*
X474078Y2893D01*
X473995Y3007D01*
X473909Y3117D01*
X473820Y3226D01*
X473728Y3332D01*
X473633Y3435D01*
X473536Y3536D01*
X473435Y3633D01*
X473332Y3728D01*
X473226Y3820D01*
X473117Y3909D01*
X473007Y3995D01*
X472893Y4078D01*
X472778Y4157D01*
X472660Y4234D01*
X472540Y4307D01*
X472419Y4376D01*
X472295Y4442D01*
X472169Y4505D01*
X472042Y4564D01*
X471913Y4619D01*
X471783Y4671D01*
X471651Y4719D01*
X471518Y4764D01*
X471384Y4805D01*
X471249Y4842D01*
X471113Y4875D01*
X470975Y4904D01*
X470838Y4929D01*
X470699Y4951D01*
X470560Y4969D01*
X470420Y4982D01*
X470280Y4992D01*
X470140Y4998D01*
X470000Y5000D01*
X469860Y4998D01*
X469720Y4992D01*
X469580Y4982D01*
X469440Y4969D01*
X469301Y4951D01*
X469162Y4929D01*
X469025Y4904D01*
X468887Y4875D01*
X468751Y4842D01*
X468616Y4805D01*
X468482Y4764D01*
X468349Y4719D01*
X468217Y4671D01*
X468087Y4619D01*
X467958Y4564D01*
X467831Y4505D01*
X467705Y4442D01*
X467581Y4376D01*
X467460Y4307D01*
X467340Y4234D01*
X467222Y4157D01*
X467107Y4078D01*
X466993Y3995D01*
X466883Y3909D01*
X466774Y3820D01*
X466668Y3728D01*
X466565Y3633D01*
X466464Y3536D01*
X466367Y3435D01*
X466272Y3332D01*
X466180Y3226D01*
X466091Y3117D01*
X466005Y3007D01*
X465922Y2893D01*
X465843Y2778D01*
X465766Y2660D01*
X465693Y2540D01*
X465624Y2419D01*
X465558Y2295D01*
X465495Y2169D01*
X465436Y2042D01*
X465381Y1913D01*
X465329Y1783D01*
X465281Y1651D01*
X465236Y1518D01*
X465195Y1384D01*
X465158Y1249D01*
X465125Y1113D01*
X465096Y975D01*
X465071Y838D01*
X465049Y699D01*
X465031Y560D01*
X465018Y420D01*
X465008Y280D01*
X465002Y140D01*
X465000Y0D01*
X435000Y0D01*
X434758Y3D01*
X434517Y12D01*
X434276Y26D01*
X434035Y47D01*
X433795Y73D01*
X433555Y105D01*
X433316Y143D01*
X433079Y186D01*
X432842Y236D01*
X432607Y291D01*
X432373Y351D01*
X432141Y418D01*
X431910Y489D01*
X431681Y567D01*
X431454Y650D01*
X431229Y738D01*
X431006Y832D01*
X430786Y931D01*
X430568Y1036D01*
X430353Y1145D01*
X430140Y1260D01*
X429930Y1380D01*
X429724Y1505D01*
X429520Y1635D01*
X429319Y1770D01*
X429122Y1910D01*
X428928Y2054D01*
X428738Y2203D01*
X428552Y2357D01*
X428369Y2515D01*
X428190Y2677D01*
X428015Y2844D01*
X427844Y3015D01*
X427677Y3190D01*
X427515Y3369D01*
X427357Y3552D01*
X427203Y3738D01*
X427054Y3928D01*
X426910Y4122D01*
X426770Y4319D01*
X426635Y4520D01*
X426505Y4724D01*
X426380Y4930D01*
X426260Y5140D01*
X426145Y5353D01*
X426036Y5568D01*
X425931Y5786D01*
X425832Y6006D01*
X425738Y6229D01*
X425650Y6454D01*
X425567Y6681D01*
X425489Y6910D01*
X425418Y7141D01*
X425351Y7373D01*
X425291Y7607D01*
X425236Y7842D01*
X425186Y8079D01*
X425143Y8316D01*
X425105Y8555D01*
X425073Y8795D01*
X425047Y9035D01*
X425026Y9276D01*
X425012Y9517D01*
X425003Y9758D01*
X425000Y10000D01*
D11*
X464000Y40750D03*
X464000Y50500D03*
X464000Y59500D03*
X464000Y68500D03*
X464000Y77500D03*
X464000Y86500D03*
X464000Y95500D03*
X464000Y104500D03*
X464000Y113500D03*
X464000Y122500D03*
X464000Y131500D03*
X464000Y140500D03*
X464000Y149500D03*
X464000Y159250D03*
X436000Y37000D03*
X436000Y46000D03*
X436000Y55000D03*
X436000Y64000D03*
X436000Y73000D03*
X436000Y82000D03*
X436000Y91000D03*
X436000Y100000D03*
X436000Y109000D03*
X436000Y118000D03*
X436000Y127000D03*
X436000Y136000D03*
X436000Y145000D03*
X436000Y154000D03*
X436000Y163000D03*
D10*
X439750Y17500D02*
X439753Y17752D01*
X439762Y18003D01*
X439778Y18254D01*
X439799Y18505D01*
X439827Y18755D01*
X439861Y19004D01*
X439901Y19252D01*
X439947Y19500D01*
X439999Y19746D01*
X440057Y19991D01*
X440121Y20234D01*
X440191Y20475D01*
X440267Y20715D01*
X440349Y20953D01*
X440437Y21189D01*
X440530Y21423D01*
X440629Y21654D01*
X440734Y21882D01*
X440844Y22109D01*
X440960Y22332D01*
X441082Y22552D01*
X441208Y22770D01*
X441340Y22984D01*
X441477Y23195D01*
X441620Y23402D01*
X441767Y23606D01*
X441919Y23806D01*
X442077Y24003D01*
X442239Y24195D01*
X442405Y24383D01*
X442576Y24568D01*
X442752Y24748D01*
X442932Y24924D01*
X443117Y25095D01*
X443305Y25261D01*
X443497Y25423D01*
X443694Y25581D01*
X443894Y25733D01*
X444098Y25880D01*
X444305Y26023D01*
X444516Y26160D01*
X444730Y26292D01*
X444948Y26418D01*
X445168Y26540D01*
X445391Y26656D01*
X445618Y26766D01*
X445846Y26871D01*
X446077Y26970D01*
X446311Y27063D01*
X446547Y27151D01*
X446785Y27233D01*
X447025Y27309D01*
X447266Y27379D01*
X447509Y27443D01*
X447754Y27501D01*
X448000Y27553D01*
X448248Y27599D01*
X448496Y27639D01*
X448745Y27673D01*
X448995Y27701D01*
X449246Y27722D01*
X449497Y27738D01*
X449748Y27747D01*
X450000Y27750D01*
X450252Y27747D01*
X450503Y27738D01*
X450754Y27722D01*
X451005Y27701D01*
X451255Y27673D01*
X451504Y27639D01*
X451752Y27599D01*
X452000Y27553D01*
X452246Y27501D01*
X452491Y27443D01*
X452734Y27379D01*
X452975Y27309D01*
X453215Y27233D01*
X453453Y27151D01*
X453689Y27063D01*
X453923Y26970D01*
X454154Y26871D01*
X454382Y26766D01*
X454609Y26656D01*
X454832Y26540D01*
X455052Y26418D01*
X455270Y26292D01*
X455484Y26160D01*
X455695Y26023D01*
X455902Y25880D01*
X456106Y25733D01*
X456306Y25581D01*
X456503Y25423D01*
X456695Y25261D01*
X456883Y25095D01*
X457068Y24924D01*
X457248Y24748D01*
X457424Y24568D01*
X457595Y24383D01*
X457761Y24195D01*
X457923Y24003D01*
X458081Y23806D01*
X458233Y23606D01*
X458380Y23402D01*
X458523Y23195D01*
X458660Y22984D01*
X458792Y22770D01*
X458918Y22552D01*
X459040Y22332D01*
X459156Y22109D01*
X459266Y21882D01*
X459371Y21654D01*
X459470Y21423D01*
X459563Y21189D01*
X459651Y20953D01*
X459733Y20715D01*
X459809Y20475D01*
X459879Y20234D01*
X459943Y19991D01*
X460001Y19746D01*
X460053Y19500D01*
X460099Y19252D01*
X460139Y19004D01*
X460173Y18755D01*
X460201Y18505D01*
X460222Y18254D01*
X460238Y18003D01*
X460247Y17752D01*
X460250Y17500D01*
X460247Y17248D01*
X460238Y16997D01*
X460222Y16746D01*
X460201Y16495D01*
X460173Y16245D01*
X460139Y15996D01*
X460099Y15748D01*
X460053Y15500D01*
X460001Y15254D01*
X459943Y15009D01*
X459879Y14766D01*
X459809Y14525D01*
X459733Y14285D01*
X459651Y14047D01*
X459563Y13811D01*
X459470Y13577D01*
X459371Y13346D01*
X459266Y13118D01*
X459156Y12891D01*
X459040Y12668D01*
X458918Y12448D01*
X458792Y12230D01*
X458660Y12016D01*
X458523Y11805D01*
X458380Y11598D01*
X458233Y11394D01*
X458081Y11194D01*
X457923Y10997D01*
X457761Y10805D01*
X457595Y10617D01*
X457424Y10432D01*
X457248Y10252D01*
X457068Y10076D01*
X456883Y9905D01*
X456695Y9739D01*
X456503Y9577D01*
X456306Y9419D01*
X456106Y9267D01*
X455902Y9120D01*
X455695Y8977D01*
X455484Y8840D01*
X455270Y8708D01*
X455052Y8582D01*
X454832Y8460D01*
X454609Y8344D01*
X454382Y8234D01*
X454154Y8129D01*
X453923Y8030D01*
X453689Y7937D01*
X453453Y7849D01*
X453215Y7767D01*
X452975Y7691D01*
X452734Y7621D01*
X452491Y7557D01*
X452246Y7499D01*
X452000Y7447D01*
X451752Y7401D01*
X451504Y7361D01*
X451255Y7327D01*
X451005Y7299D01*
X450754Y7278D01*
X450503Y7262D01*
X450252Y7253D01*
X450000Y7250D01*
X449748Y7253D01*
X449497Y7262D01*
X449246Y7278D01*
X448995Y7299D01*
X448745Y7327D01*
X448496Y7361D01*
X448248Y7401D01*
X448000Y7447D01*
X447754Y7499D01*
X447509Y7557D01*
X447266Y7621D01*
X447025Y7691D01*
X446785Y7767D01*
X446547Y7849D01*
X446311Y7937D01*
X446077Y8030D01*
X445846Y8129D01*
X445618Y8234D01*
X445391Y8344D01*
X445168Y8460D01*
X444948Y8582D01*
X444730Y8708D01*
X444516Y8840D01*
X444305Y8977D01*
X444098Y9120D01*
X443894Y9267D01*
X443694Y9419D01*
X443497Y9577D01*
X443305Y9739D01*
X443117Y9905D01*
X442932Y10076D01*
X442752Y10252D01*
X442576Y10432D01*
X442405Y10617D01*
X442239Y10805D01*
X442077Y10997D01*
X441919Y11194D01*
X441767Y11394D01*
X441620Y11598D01*
X441477Y11805D01*
X441340Y12016D01*
X441208Y12230D01*
X441082Y12448D01*
X440960Y12668D01*
X440844Y12891D01*
X440734Y13118D01*
X440629Y13346D01*
X440530Y13577D01*
X440437Y13811D01*
X440349Y14047D01*
X440267Y14285D01*
X440191Y14525D01*
X440121Y14766D01*
X440057Y15009D01*
X439999Y15254D01*
X439947Y15500D01*
X439901Y15748D01*
X439861Y15996D01*
X439827Y16245D01*
X439799Y16495D01*
X439778Y16746D01*
X439762Y16997D01*
X439753Y17248D01*
X439750Y17500D01*
X439750Y182500D02*
X439753Y182752D01*
X439762Y183003D01*
X439778Y183254D01*
X439799Y183505D01*
X439827Y183755D01*
X439861Y184004D01*
X439901Y184252D01*
X439947Y184500D01*
X439999Y184746D01*
X440057Y184991D01*
X440121Y185234D01*
X440191Y185475D01*
X440267Y185715D01*
X440349Y185953D01*
X440437Y186189D01*
X440530Y186423D01*
X440629Y186654D01*
X440734Y186882D01*
X440844Y187109D01*
X440960Y187332D01*
X441082Y187552D01*
X441208Y187770D01*
X441340Y187984D01*
X441477Y188195D01*
X441620Y188402D01*
X441767Y188606D01*
X441919Y188806D01*
X442077Y189003D01*
X442239Y189195D01*
X442405Y189383D01*
X442576Y189568D01*
X442752Y189748D01*
X442932Y189924D01*
X443117Y190095D01*
X443305Y190261D01*
X443497Y190423D01*
X443694Y190581D01*
X443894Y190733D01*
X444098Y190880D01*
X444305Y191023D01*
X444516Y191160D01*
X444730Y191292D01*
X444948Y191418D01*
X445168Y191540D01*
X445391Y191656D01*
X445618Y191766D01*
X445846Y191871D01*
X446077Y191970D01*
X446311Y192063D01*
X446547Y192151D01*
X446785Y192233D01*
X447025Y192309D01*
X447266Y192379D01*
X447509Y192443D01*
X447754Y192501D01*
X448000Y192553D01*
X448248Y192599D01*
X448496Y192639D01*
X448745Y192673D01*
X448995Y192701D01*
X449246Y192722D01*
X449497Y192738D01*
X449748Y192747D01*
X450000Y192750D01*
X450252Y192747D01*
X450503Y192738D01*
X450754Y192722D01*
X451005Y192701D01*
X451255Y192673D01*
X451504Y192639D01*
X451752Y192599D01*
X452000Y192553D01*
X452246Y192501D01*
X452491Y192443D01*
X452734Y192379D01*
X452975Y192309D01*
X453215Y192233D01*
X453453Y192151D01*
X453689Y192063D01*
X453923Y191970D01*
X454154Y191871D01*
X454382Y191766D01*
X454609Y191656D01*
X454832Y191540D01*
X455052Y191418D01*
X455270Y191292D01*
X455484Y191160D01*
X455695Y191023D01*
X455902Y190880D01*
X456106Y190733D01*
X456306Y190581D01*
X456503Y190423D01*
X456695Y190261D01*
X456883Y190095D01*
X457068Y189924D01*
X457248Y189748D01*
X457424Y189568D01*
X457595Y189383D01*
X457761Y189195D01*
X457923Y189003D01*
X458081Y188806D01*
X458233Y188606D01*
X458380Y188402D01*
X458523Y188195D01*
X458660Y187984D01*
X458792Y187770D01*
X458918Y187552D01*
X459040Y187332D01*
X459156Y187109D01*
X459266Y186882D01*
X459371Y186654D01*
X459470Y186423D01*
X459563Y186189D01*
X459651Y185953D01*
X459733Y185715D01*
X459809Y185475D01*
X459879Y185234D01*
X459943Y184991D01*
X460001Y184746D01*
X460053Y184500D01*
X460099Y184252D01*
X460139Y184004D01*
X460173Y183755D01*
X460201Y183505D01*
X460222Y183254D01*
X460238Y183003D01*
X460247Y182752D01*
X460250Y182500D01*
X460247Y182248D01*
X460238Y181997D01*
X460222Y181746D01*
X460201Y181495D01*
X460173Y181245D01*
X460139Y180996D01*
X460099Y180748D01*
X460053Y180500D01*
X460001Y180254D01*
X459943Y180009D01*
X459879Y179766D01*
X459809Y179525D01*
X459733Y179285D01*
X459651Y179047D01*
X459563Y178811D01*
X459470Y178577D01*
X459371Y178346D01*
X459266Y178118D01*
X459156Y177891D01*
X459040Y177668D01*
X458918Y177448D01*
X458792Y177230D01*
X458660Y177016D01*
X458523Y176805D01*
X458380Y176598D01*
X458233Y176394D01*
X458081Y176194D01*
X457923Y175997D01*
X457761Y175805D01*
X457595Y175617D01*
X457424Y175432D01*
X457248Y175252D01*
X457068Y175076D01*
X456883Y174905D01*
X456695Y174739D01*
X456503Y174577D01*
X456306Y174419D01*
X456106Y174267D01*
X455902Y174120D01*
X455695Y173977D01*
X455484Y173840D01*
X455270Y173708D01*
X455052Y173582D01*
X454832Y173460D01*
X454609Y173344D01*
X454382Y173234D01*
X454154Y173129D01*
X453923Y173030D01*
X453689Y172937D01*
X453453Y172849D01*
X453215Y172767D01*
X452975Y172691D01*
X452734Y172621D01*
X452491Y172557D01*
X452246Y172499D01*
X452000Y172447D01*
X451752Y172401D01*
X451504Y172361D01*
X451255Y172327D01*
X451005Y172299D01*
X450754Y172278D01*
X450503Y172262D01*
X450252Y172253D01*
X450000Y172250D01*
X449748Y172253D01*
X449497Y172262D01*
X449246Y172278D01*
X448995Y172299D01*
X448745Y172327D01*
X448496Y172361D01*
X448248Y172401D01*
X448000Y172447D01*
X447754Y172499D01*
X447509Y172557D01*
X447266Y172621D01*
X447025Y172691D01*
X446785Y172767D01*
X446547Y172849D01*
X446311Y172937D01*
X446077Y173030D01*
X445846Y173129D01*
X445618Y173234D01*
X445391Y173344D01*
X445168Y173460D01*
X444948Y173582D01*
X444730Y173708D01*
X444516Y173840D01*
X444305Y173977D01*
X444098Y174120D01*
X443894Y174267D01*
X443694Y174419D01*
X443497Y174577D01*
X443305Y174739D01*
X443117Y174905D01*
X442932Y175076D01*
X442752Y175252D01*
X442576Y175432D01*
X442405Y175617D01*
X442239Y175805D01*
X442077Y175997D01*
X441919Y176194D01*
X441767Y176394D01*
X441620Y176598D01*
X441477Y176805D01*
X441340Y177016D01*
X441208Y177230D01*
X441082Y177448D01*
X440960Y177668D01*
X440844Y177891D01*
X440734Y178118D01*
X440629Y178346D01*
X440530Y178577D01*
X440437Y178811D01*
X440349Y179047D01*
X440267Y179285D01*
X440191Y179525D01*
X440121Y179766D01*
X440057Y180009D01*
X439999Y180254D01*
X439947Y180500D01*
X439901Y180748D01*
X439861Y180996D01*
X439827Y181245D01*
X439799Y181495D01*
X439778Y181746D01*
X439762Y181997D01*
X439753Y182248D01*
X439750Y182500D01*
D12*
X459750Y39250D03*
X459750Y160750D03*
D13*
X457500Y50500D03*
X442500Y37000D03*
D14*
X464000Y50500D03*
X436000Y37000D03*
X436000Y46000D03*
X436000Y55000D03*
X436000Y64000D03*
X436000Y73000D03*
X436000Y82000D03*
X436000Y91000D03*
X436000Y100000D03*
X436000Y109000D03*
X436000Y118000D03*
X436000Y127000D03*
X436000Y136000D03*
X436000Y145000D03*
X436000Y154000D03*
X436000Y163000D03*
X464000Y59500D03*
X464000Y68500D03*
X464000Y77500D03*
X464000Y86500D03*
X464000Y95500D03*
X464000Y104500D03*
X464000Y113500D03*
X464000Y122500D03*
X464000Y131500D03*
X464000Y140500D03*
X464000Y149500D03*
D13*
X457500Y59500D03*
X457500Y68500D03*
X457500Y77500D03*
X457500Y86500D03*
X457500Y95500D03*
X457500Y104500D03*
X457500Y113500D03*
X457500Y122500D03*
X457500Y131500D03*
X457500Y140500D03*
X457500Y149500D03*
X442500Y46000D03*
X442500Y55000D03*
X442500Y64000D03*
X442500Y73000D03*
X442500Y82000D03*
X442500Y91000D03*
X442500Y100000D03*
X442500Y109000D03*
X442500Y118000D03*
X442500Y127000D03*
X442500Y136000D03*
X442500Y145000D03*
X442500Y154000D03*
X442500Y163000D03*
D15*
X12200Y61900D03*
X37600Y61900D03*
X63000Y61900D03*
X88400Y61900D03*
X113800Y61900D03*
X139200Y61900D03*
X164600Y61900D03*
X190000Y61900D03*
X215400Y61900D03*
X240800Y61900D03*
X266200Y61900D03*
X291600Y61900D03*
X317000Y61900D03*
X342400Y61900D03*
X367800Y61900D03*
X12200Y138100D03*
X37600Y138100D03*
X63000Y138100D03*
X88400Y138100D03*
X113800Y138100D03*
X139200Y138100D03*
X164600Y138100D03*
X190000Y138100D03*
X215400Y138100D03*
X240800Y138100D03*
X266200Y138100D03*
X291600Y138100D03*
X317000Y138100D03*
X342400Y138100D03*
X367800Y138100D03*
D16*
X419250Y37750D03*
X427000Y37000D03*
X204000Y84000D03*
X226000Y87000D03*
X246000Y87000D03*
X274000Y92000D03*
X298000Y96000D03*
X327000Y100000D03*
X354000Y105000D03*
X402500Y137500D03*
X413000Y161000D03*
X422000Y161000D03*
D17*
X399000Y145000D02*
X381000Y163000D01*
X316500Y163000D02*
X291600Y138100D01*
X316500Y163000D02*
X381000Y163000D01*
X399000Y145000D02*
X427000Y145000D01*
X436000Y136000D01*
D16*
X388000Y149000D03*
D17*
X378000Y159000D01*
X337900Y159000D02*
X317000Y138100D01*
X337900Y159000D02*
X378000Y159000D01*
D16*
X377000Y153000D03*
D17*
X376000Y154000D01*
X358000Y154000D01*
X342400Y138400D01*
X342400Y138100D01*
M02*
